<svg width="74" height="68" viewBox="0 0 74 68" fill="none" xmlns="http://www.w3.org/2000/svg">
<path fill-rule="evenodd" clip-rule="evenodd" d="M73.2515 25.1374C74.7419 32.7907 66.3254 38.4986 63.4763 45.7565C60.801 52.5718 63.1233 62.023 57.1245 66.2204C51.1265 70.4172 43.0209 65.7876 35.7263 65.1733C29.0462 64.6108 21.268 67.2281 16.2538 62.7786C11.2581 58.3456 14.1388 49.9762 11.6264 43.7878C8.68947 36.5534 -0.0474276 31.6479 0.452232 23.8561C0.971213 15.763 7.28015 8.7858 14.1476 4.47235C20.8498 0.262679 29.1762 -0.0952924 37.0303 0.881404C44.2706 1.78177 50.3989 5.67455 56.4612 9.73424C62.9303 14.0664 71.7632 17.4953 73.2515 25.1374Z" fill="#DE445B" fill-opacity="0.4"/>
</svg>
