<svg width="68" height="70" viewBox="0 0 68 70" fill="none" xmlns="http://www.w3.org/2000/svg">
<path fill-rule="evenodd" clip-rule="evenodd" d="M37.0979 0.0846579C43.5003 -0.765094 48.6626 4.97229 53.8832 8.77465C59.097 12.572 65.5976 15.844 67.2833 22.0699C68.9512 28.2298 63.7039 33.8474 62.3611 40.0863C60.7866 47.402 63.6192 56.0002 58.7562 61.6879C53.6335 67.6794 44.827 71.1833 37.0979 69.6339C29.5921 68.1292 26.8485 58.9833 20.9463 54.1085C15.6033 49.6955 7.68411 48.5794 4.29072 42.5374C0.584001 35.9375 -2.00684 26.8749 2.06855 20.496C6.21461 14.0065 16.6113 16.7155 23.265 12.8384C28.8198 9.60169 30.7247 0.930526 37.0979 0.0846579Z" fill="#E0B05A" fill-opacity="0.4"/>
</svg>
