<svg width="68" height="70" viewBox="0 0 68 70" fill="none" xmlns="http://www.w3.org/2000/svg">
<path fill-rule="evenodd" clip-rule="evenodd" d="M38.6123 0.100876C45.7167 -0.854514 51.7826 5.17154 57.1493 9.9238C62.0731 14.2839 66.628 19.4817 67.806 25.9522C68.9121 32.0283 64.1494 37.3332 63.2516 43.4436C62.0661 51.5132 67.6506 61.6488 61.7364 67.2653C56.006 72.7073 46.3054 68.6509 38.6123 66.8427C32.418 65.3867 27.89 60.8958 22.234 57.9806C15.1182 54.313 4.69024 54.8045 1.24038 47.5806C-2.17333 40.4325 2.08082 31.584 6.48288 24.9983C10.2629 19.3432 17.9985 18.6322 23.3752 14.4657C29.0312 10.0828 31.5208 1.05454 38.6123 0.100876Z" fill="#A1D2AC" fill-opacity="0.4"/>
</svg>
