<svg width="72" height="63" viewBox="0 0 72 63" fill="none" xmlns="http://www.w3.org/2000/svg">
<path fill-rule="evenodd" clip-rule="evenodd" d="M5.65966 42.3163C2.5097 35.5871 -1.09481 28.3397 0.731391 21.1377C2.57729 13.8579 8.71793 8.36803 15.2205 4.61063C21.1548 1.18163 28.2391 0.260455 35.0087 1.33122C40.9705 2.27421 44.871 7.54037 50.3085 10.1606C57.1644 13.4643 68.6772 11.3538 70.9078 18.63C73.1822 26.0492 62.0846 30.8119 58.7936 37.8395C56.2883 43.189 57.9951 50.0265 54.1175 54.4827C49.8727 59.3609 43.5386 62.1415 37.1025 62.7673C30.4013 63.4188 23.6287 61.6669 17.9847 57.9959C12.2721 54.2803 8.54876 48.4883 5.65966 42.3163Z" fill="#8FA2B7" fill-opacity="0.4"/>
</svg>
