<svg width="73" height="70" viewBox="0 0 73 70" fill="none" xmlns="http://www.w3.org/2000/svg">
<path fill-rule="evenodd" clip-rule="evenodd" d="M37.7418 0.0578591C45.4987 0.848231 48.5239 10.5573 54.6454 15.3866C60.3935 19.9214 70.1122 20.4363 72.392 27.3939C74.6715 34.3503 67.8924 40.7674 65.1914 47.5713C62.718 53.8021 62.9701 62.005 57.2588 65.5154C51.5688 69.0127 44.3926 63.8312 37.7418 64.4433C29.9668 65.1588 22.7409 72.1002 15.4279 69.3649C7.83206 66.5238 2.98146 58.4643 0.842214 50.6418C-1.24556 43.0075 0.823701 34.9344 4.0336 27.7C6.99265 21.0309 12.4937 16.293 18.1354 11.6665C24.1557 6.72967 29.9962 -0.73135 37.7418 0.0578591Z" fill="#DE445B" fill-opacity="0.4"/>
</svg>
