<svg width="66" height="70" viewBox="0 0 66 70" fill="none" xmlns="http://www.w3.org/2000/svg">
<path fill-rule="evenodd" clip-rule="evenodd" d="M37.21 0.26195C44.8779 1.41297 50.3877 7.73444 55.7746 13.3114C60.2977 17.9941 64.2139 23.2789 65.5892 29.6424C66.8748 35.591 64.735 41.4142 63.116 47.2808C61.4089 53.4669 60.7791 60.4268 55.9332 64.6337C50.9235 68.9827 43.7846 70.6568 37.21 69.7705C31.0455 68.9395 27.0266 63.4504 21.827 60.0362C16.266 56.3845 9.33129 54.6833 5.72242 49.0943C1.49672 42.5501 -1.08139 34.5562 0.441148 26.9165C2.05093 18.839 7.43187 11.8899 14.1004 7.05574C20.7642 2.22499 29.0706 -0.959846 37.21 0.26195Z" fill="#7D514A" fill-opacity="0.4"/>
</svg>
