<svg width="62" height="88" viewBox="0 0 62 88" fill="none" xmlns="http://www.w3.org/2000/svg">
<path d="M15.4374 77.125V85.4062C15.4374 86.3205 16.1794 87.0625 17.0937 87.0625H23.7187C24.1579 87.0625 24.5792 86.888 24.8898 86.5774C25.2004 86.2668 25.3749 85.8455 25.3749 85.4062V77.125H28.6874V85.4062C28.6874 86.3205 29.4294 87.0625 30.3437 87.0625H36.9687C37.4079 87.0625 37.8292 86.888 38.1398 86.5774C38.4504 86.2668 38.6249 85.8455 38.6249 85.4062V77.125H39.1814C52.3784 77.125 61.8124 70.2814 61.8124 58.4425C61.8124 48.4918 55.1411 43.0526 47.3302 42.2775V41.6945C53.7564 40.0913 58.4801 35.2417 58.4801 27.1857C58.4801 17.0362 50.8613 10.875 39.2344 10.875H38.6249V2.59375C38.6249 2.15449 38.4504 1.73321 38.1398 1.4226C37.8292 1.112 37.4079 0.9375 36.9687 0.9375H30.3437C29.9044 0.9375 29.4831 1.112 29.1725 1.4226C28.8619 1.73321 28.6874 2.15449 28.6874 2.59375V10.875H24.8913V2.59375C24.8913 2.15449 24.7168 1.73321 24.4062 1.4226C24.0956 1.112 23.6743 0.9375 23.2351 0.9375H17.0937C16.6544 0.9375 16.2331 1.112 15.9225 1.4226C15.6119 1.73321 15.4374 2.15449 15.4374 2.59375V10.875L2.20068 10.9479C1.76142 10.9479 1.34014 11.1224 1.02954 11.433C0.71893 11.7436 0.544434 12.1649 0.544434 12.6041V19.1562C0.544434 20.0639 1.27318 20.8125 2.18743 20.8125L7.18931 20.7794C8.50135 20.7881 9.75668 21.3155 10.6813 22.2463C11.606 23.1772 12.125 24.436 12.1249 25.7481V62.2188C12.1249 63.5365 11.6014 64.8004 10.6696 65.7322C9.7378 66.664 8.47398 67.1875 7.15618 67.1875L2.20068 67.2604C1.76142 67.2604 1.34014 67.4349 1.02954 67.7455C0.71893 68.0561 0.544434 68.4774 0.544434 68.9166V75.5416C0.544434 76.4559 1.28643 77.1979 2.20068 77.1979L15.4374 77.125ZM24.8913 20.7264H36.2797C42.2819 20.7264 45.8064 24.0256 45.8064 29.4184C45.8064 35.1887 41.9971 38.4416 33.3713 38.4416H24.8913V20.7264ZM24.8913 47.5643H37.0813C44.6139 47.5643 48.7148 51.4068 48.7148 57.6608C48.7148 63.9744 44.5676 67.267 34.4181 67.267H24.8913V47.5709V47.5643Z" fill="#3A299E" fill-opacity="0.5"/>
</svg>
