<svg width="174" height="187" viewBox="0 0 174 187" fill="none" xmlns="http://www.w3.org/2000/svg">
<path fill-rule="evenodd" clip-rule="evenodd" d="M92.1454 1.54728C120.121 0.99902 145.713 18.5363 161.034 42.0642C175.407 64.1355 175.376 91.8659 167.297 117.049C159.699 140.731 142.2 158.692 119.967 169.953C95.2866 182.453 66.7606 192.662 42.2565 180.441C17.116 167.902 4.3595 139.191 1.79982 111.057C-0.483447 85.9616 13.8199 64.2957 29.9986 44.6934C38.4935 34.4009 47.4257 23.7393 57.5542 15.5813C67.6753 7.42917 78.9569 1.80575 92.1454 1.54728ZM161.872 41.5185C146.419 17.7878 120.538 -0.00935122 92.1258 0.547471C78.6434 0.811697 67.1541 6.565 56.9269 14.8025C46.707 23.0342 37.7134 33.7751 29.2274 44.0569C13.0432 63.6658 -1.51919 85.6142 0.803928 111.148C3.37957 139.457 16.2326 168.579 41.8102 181.336C66.8011 193.8 95.7542 183.337 120.419 170.845C142.844 159.487 160.555 141.337 168.249 117.354C176.385 91.9951 176.463 63.925 161.872 41.5185ZM159.266 115.06C166.519 92.4476 166.566 67.4827 153.608 47.5829C139.839 26.4389 116.81 10.6294 91.5833 11.1227C67.7189 11.5893 50.835 31.4805 35.6418 49.8895C21.164 67.4318 8.25086 86.9441 10.3127 109.596C12.6113 134.848 24.0698 160.723 46.7606 172.041C68.9044 183.086 94.6192 173.839 116.695 162.658C136.673 152.539 152.425 136.384 159.266 115.06Z" fill="#F753A4"/>
</svg>
