<svg width="171" height="154" viewBox="0 0 171 154" fill="none" xmlns="http://www.w3.org/2000/svg">
<path fill-rule="evenodd" clip-rule="evenodd" d="M94.2492 2.01813C106.023 2.19944 118.282 2.80648 129.411 5.66793C140.533 8.52758 150.491 13.6304 157.7 22.781C172.647 41.7536 172.277 68.3867 164.827 91.5489C157.818 113.34 140.771 129.138 120.17 139.242C97.7786 150.225 72.6252 157.8 49.9688 147.911C25.1196 137.065 5.14633 114.45 1.66158 87.5873C-1.6611 61.9741 14.43 38.5845 33.5267 20.9151C49.8663 5.79676 71.8769 1.67361 94.2492 2.01813ZM158.486 22.1622C151.1 12.7868 140.919 7.5943 129.66 4.69943C118.408 1.80637 106.047 1.1997 94.2646 1.01825C71.7862 0.672092 49.4634 4.80715 32.8476 20.1811C13.6901 37.9067 -2.71798 61.6002 0.669894 87.7159C4.20828 114.992 24.4629 137.869 49.5688 148.828C72.6599 158.906 98.1783 151.143 120.61 140.14C141.374 129.956 158.663 113.98 165.779 91.8551C173.277 68.5457 173.728 41.5105 158.486 22.1622ZM151.416 27.7338C138.192 10.9804 114.923 9.11151 93.5828 8.78172C73.2669 8.46777 53.1856 12.1999 38.259 25.9851C20.9323 41.9869 6.21303 63.2733 9.25463 86.6616C12.4379 111.139 30.6615 131.709 53.2905 141.57C74.0134 150.6 96.9654 143.666 117.268 133.728C136.004 124.557 151.557 110.192 157.953 90.3365C164.722 69.3259 165.092 45.0609 151.416 27.7338Z" fill="#F7931A"/>
</svg>
