<svg width="26" height="26" viewBox="0 0 26 26" fill="none" xmlns="http://www.w3.org/2000/svg">
<path opacity="0.2" d="M24.9796 15.9878C23.3301 22.6039 16.6287 26.63 10.0118 24.9805C3.39794 23.331 -0.628545 16.6296 1.02134 10.0139C2.67006 3.39697 9.3711 -0.6299 15.9861 1.0196C22.6026 2.66909 26.6287 9.37128 24.9792 15.9878H24.9796Z" fill="#F7931A"/>
<path fill-rule="evenodd" clip-rule="evenodd" d="M16.7195 11.5653C16.886 10.4505 16.0372 9.85117 14.8766 9.45138L15.2531 7.94123L14.3336 7.71214L13.9671 9.1825C13.7257 9.12228 13.4775 9.06546 13.2308 9.00917L13.6 7.52914L12.6813 7.30005L12.3045 8.80967C12.1045 8.76412 11.9081 8.71908 11.7175 8.67169L11.7186 8.66698L10.4509 8.35045L10.2064 9.33225C10.2064 9.33225 10.8884 9.48856 10.874 9.49824C11.2463 9.59119 11.3138 9.83755 11.3023 10.0329L10.8735 11.7533C10.8991 11.7598 10.9324 11.7692 10.969 11.7839L10.8721 11.7598L10.2708 14.1698C10.2252 14.2829 10.1097 14.4526 9.8495 14.3882C9.85866 14.4015 9.18135 14.2214 9.18135 14.2214L8.72501 15.2739L9.9215 15.5721C10.0566 15.6059 10.19 15.6407 10.322 15.6752C10.4074 15.6975 10.4923 15.7196 10.5766 15.7412L10.1961 17.2689L11.1143 17.498L11.4913 15.9868C11.7419 16.0549 11.9854 16.1177 12.2236 16.1769L11.8482 17.681L12.7674 17.9101L13.1478 16.3855C14.7153 16.6822 15.8943 16.5625 16.3899 15.1451C16.7897 14.0035 16.3702 13.3451 15.5455 12.9154C16.1461 12.7764 16.5986 12.3813 16.7192 11.5653H16.7195ZM14.619 14.5104C14.358 15.5581 12.7178 15.1246 11.9679 14.9264C11.9008 14.9087 11.8408 14.8928 11.7895 14.8801L12.2943 12.8565C12.3569 12.8722 12.4334 12.8893 12.5201 12.9088L12.5201 12.9088C13.2959 13.0829 14.8856 13.4396 14.6192 14.5104H14.619ZM12.676 11.9698C13.3017 12.1367 14.6655 12.5005 14.903 11.5488C15.1459 10.5751 13.8198 10.2816 13.1721 10.1383C13.0993 10.1222 13.0351 10.108 12.9826 10.0949L12.525 11.9302C12.5683 11.941 12.6191 11.9546 12.676 11.9698Z" fill="#F7931A"/>
</svg>
