<svg width="1440" height="349" viewBox="0 0 1440 349" fill="none" xmlns="http://www.w3.org/2000/svg">
<path fill-rule="evenodd" clip-rule="evenodd" d="M1440 0L1380 43.2C1320 86.4 1200 172.8 1080 216C960 259.2 840 259.2 720 230.4C600 201.6 480 144 360 122.4C240 100.8 120 115.2 60 122.4L0 129.6V259.2H60C120 259.2 240 259.2 360 259.2C480 259.2 600 259.2 720 259.2C840 259.2 960 259.2 1080 259.2C1200 259.2 1320 259.2 1380 259.2H1440V0Z" fill="#6445F7"/>
<path fill-rule="evenodd" clip-rule="evenodd" d="M0 2L60 45.2C120 88.4 240 174.8 360 218C480 261.2 600 261.2 720 232.4C840 203.6 960 146 1080 124.4C1200 102.8 1320 117.2 1380 124.4L1440 131.6V261.2V349C1380 349 1224 349 1104 349C984 349 952 349 832 349C712 349 517 349 397 349C277 349 284.5 349 224.5 349H0V2Z" fill="#8935F3"/>
</svg>
