<svg width="1440" height="297" viewBox="0 0 1440 297" fill="none" xmlns="http://www.w3.org/2000/svg">
<path fill-rule="evenodd" clip-rule="evenodd" d="M1440 172.8L1380 158.4C1320 144 1200 115.2 1080 136.8C960 158.4 840 230.4 720 266.4C600 302.4 480 302.4 360 288C240 273.6 120 244.8 60 230.4L-7.08093e-06 216L-2.59643e-05 0.000247959L60 0.000242714C120 0.000237468 240 0.000226978 360 0.000216487C480 0.000205996 600 0.000195505 720 0.000185015C840 0.000174524 960 0.000164033 1080 0.000153543C1200 0.000143052 1320 0.000132561 1380 0.000127316L1440 0.00012207L1440 172.8Z" fill="#F5FCFE"/>
</svg>
