<svg width="97" height="90" viewBox="0 0 97 90" fill="none" xmlns="http://www.w3.org/2000/svg">
<path fill-rule="evenodd" clip-rule="evenodd" d="M72.4774 0.492532C64.133 2.7553 58.035 9.82597 57.0801 18.3463C55.932 28.5917 62.3475 37.9705 72.4132 40.7619C76.7636 41.9682 83.1651 41.3993 86.9746 39.4676C89.0626 38.4087 91.919 36.1895 93.1875 34.6404L94.2777 33.3089L91.7473 31.3314C90.3554 30.2441 89.1685 29.3543 89.1097 29.3543C89.0505 29.3543 88.316 29.999 87.4773 30.7869C80.5473 37.2979 69.8383 35.5155 65.916 27.1982C63.0406 21.1008 64.274 14.1914 69.0333 9.73676C70.7361 8.14264 72.3042 7.29106 74.6708 6.67407C77.8199 5.85343 82.1784 6.3004 84.982 7.73171L86.1734 8.33999V11.7881V15.2364H89.6254H93.0774V10.3021V5.36772L91.9517 4.42632C90.528 3.23561 86.5708 1.30987 84.2223 0.664649C83.1639 0.373881 80.812 0.116756 78.519 0.0410595C75.3141 -0.0646746 74.2346 0.0161274 72.4774 0.492532ZM11.1304 4.11633V7.42653L11.9559 7.44785C12.4097 7.45927 13.7944 7.45717 15.0326 7.44245C16.2708 7.42773 17.4787 7.54368 17.7168 7.69988C17.9548 7.85607 20.8043 15.3944 24.0489 24.4515L29.9479 40.919H33.1993H36.4505L42.6722 24.2479L48.8935 7.57672L52.2248 7.49171L55.5558 7.4067V4.11242V0.818145L49.6274 0.823251L43.6991 0.828056L38.7546 15.265C36.0354 23.2052 33.727 29.7529 33.6256 29.816C33.5238 29.8788 31.2077 23.4137 28.4782 15.4494L23.5161 0.968335L17.3232 0.887233L11.1304 0.805829V4.11633ZM13.8965 52.5528L13.982 55.6377L17.2089 55.723L20.4357 55.8083V69.165V82.5218H17.1236H13.8115L13.8968 85.7509L13.982 88.98L29.2157 89.0578L44.4495 89.1356V85.8287V82.5218H35.8946H27.3397V74.6248C27.3397 65.8822 27.524 64.5758 29.2031 61.4233C30.1931 59.5646 32.1661 57.5968 33.9435 56.6953C34.8809 56.2195 37.644 55.4875 38.501 55.4875C38.7228 55.4875 38.7804 56.4442 38.682 58.4913L38.5373 61.4951H41.9436H45.35V55.4875V49.4799L41.5228 49.4835C37.2036 49.4874 35.4926 49.8397 32.7902 51.2813C31.0801 52.1932 28.3966 54.6876 27.2955 56.3886C26.8186 57.1255 26.8057 57.0969 26.6199 54.8867C26.5157 53.6477 26.3986 51.958 26.3599 51.132L26.2891 49.6301L20.05 49.549L13.8109 49.4676L13.8965 52.5528ZM52.8543 52.9343V56.3886H55.856H58.8577V66.9891C58.8577 78.3738 58.961 79.3612 60.5066 82.748C61.4029 84.7119 63.798 87.2822 65.6834 88.3032C68.2036 89.6682 70.3117 90.1094 73.6802 89.9778C76.1999 89.8793 77.0215 89.7186 78.498 89.0359C80.8417 87.9521 82.5035 86.5556 83.9449 84.458L85.1228 82.7444L85.6319 85.862C85.9119 87.5769 86.1482 89.0169 86.1572 89.062C86.1662 89.107 88.5712 89.107 91.5015 89.062L96.8295 88.98L96.9148 85.7509L97 82.5218H94.336H91.6716L91.4747 76.4391C91.3664 73.0937 91.2775 65.6593 91.2772 59.9181L91.2763 49.4799H84.3724H77.4684V52.9343V56.3886H80.9204H84.3724V64.6083C84.3724 69.1287 84.2355 73.5557 84.068 74.4457C83.4076 77.9566 81.1089 81.1049 78.0255 82.7218C76.6309 83.453 76.0795 83.5647 73.8663 83.5653C70.8046 83.5659 69.2548 82.8949 67.856 80.9625C65.9952 78.3921 65.9532 78.02 65.8328 63.0721L65.7233 49.4799H59.2888H52.8543V52.9343ZM0.230231 82.4371C0.152487 82.5662 0.0690381 84.1249 0.044424 85.9011L0 89.1302H3.62398H7.24795L7.16301 85.7509L7.07806 82.3716L3.72483 82.2869C1.88058 82.2403 0.307976 82.3079 0.230231 82.4371Z" fill="#8FA2B7"/>
</svg>
