<svg width="150" height="40" viewBox="0 0 150 40" fill="none" xmlns="http://www.w3.org/2000/svg">
<path fill-rule="evenodd" clip-rule="evenodd" d="M0 0V37.3333L37.3333 0H0Z" fill="#8FA2B7"/>
<path fill-rule="evenodd" clip-rule="evenodd" d="M2.66666 40.0001H40V2.66675L2.66666 40.0001Z" fill="#8FA2B7"/>
<path fill-rule="evenodd" clip-rule="evenodd" d="M60.9707 19.1329C65.3115 19.1329 67.6191 17.0072 67.6191 13.0354V12.811C67.6191 8.55953 65.2013 6.88132 60.9707 6.88132H56.465V19.1329H60.9707ZM47.6191 0H61.1904C70.7507 0 76.1905 4.30742 76.1905 12.7557V12.9788C76.1905 21.4265 70.4215 25.4548 61.4648 25.4548H56.465V40H47.6191V0Z" fill="#8FA2B7"/>
<path fill-rule="evenodd" clip-rule="evenodd" d="M93.8006 33.1187C98.0595 33.1187 100.216 31.2167 100.216 27.5799V27.3568C100.216 23.776 98.0595 21.8181 93.5851 21.8181H88.6252V33.1187H93.8006ZM94.1242 40H80V0H105.122V7.04914H88.6796L88.6252 15.4402H94.3935C103.289 15.4402 108.571 19.4126 108.571 27.4121V27.6365C108.571 35.4682 103.666 40 94.1242 40Z" fill="#8FA2B7"/>
<path fill-rule="evenodd" clip-rule="evenodd" d="M115 0.0558623H124.288V17.2627L138.621 0H148.483L132.257 18.9386L149.286 40H138.449L124.288 22.0669V40H115V0.0558623Z" fill="#8FA2B7"/>
</svg>
