<svg width="1440" height="297" viewBox="0 0 1440 297" fill="none" xmlns="http://www.w3.org/2000/svg">
<path fill-rule="evenodd" clip-rule="evenodd" d="M0 124.196L60 138.596C120 152.996 240 181.796 360 160.196C480 138.596 600 66.5964 720 30.5964C840 -5.40356 960 -5.40356 1080 8.99644C1200 23.3964 1320 52.1964 1380 66.5964L1440 80.9964V296.996H1380C1320 296.996 1200 296.996 1080 296.996C960 296.996 840 296.996 720 296.996C600 296.996 480 296.996 360 296.996C240 296.996 120 296.996 60 296.996H0V124.196Z" fill="#F5FCFE"/>
</svg>
