<svg width="296" height="40" viewBox="0 0 296 40" fill="none" xmlns="http://www.w3.org/2000/svg">
<path d="M22.08 4.64014C22.08 1.44014 19.04 0.640137 16.64 0.640137V1.12014C18.08 1.12014 19.2 1.60014 19.2 2.72014C19.2 3.36014 18.72 4.32014 17.28 4.32014C16.16 4.32014 13.76 3.68014 12 3.04014C9.92 2.24014 8 1.60014 6.4 1.60014C3.2 1.60014 0.96 4.00014 0.96 6.72014C0.96 9.12014 2.72 9.92014 3.36 10.2401L3.52 9.92013C3.2 9.60013 2.72 9.28014 2.72 8.32014C2.72 7.68014 3.36 6.56014 4.96 6.56014C6.4 6.56014 8.32 7.20014 10.88 8.00014C13.12 8.64014 15.52 9.12014 16.8 9.28014V14.2401L14.4 16.3201V16.4801L16.8 18.5601V25.4401C15.52 26.2401 14.08 26.4001 12.8 26.4001C10.4 26.4001 8.32 25.7601 6.56 23.8401L13.12 20.6401V9.60014L5.12 13.1201C5.76 11.0401 7.52 9.60014 9.28 8.64014L9.12 8.16014C4.32 9.44014 0 13.9201 0 19.3601C0 25.7601 5.28 30.5601 11.2 30.5601C17.6 30.5601 21.76 25.4401 21.76 20.1601H21.44C20.48 22.2401 19.04 24.1601 17.28 25.1201V18.5601L19.84 16.4801V16.3201L17.28 14.2401V9.28014C19.68 9.28014 22.08 7.68014 22.08 4.64014ZM8.16 22.2401L6.24 23.2001C5.12 21.7601 4.48 19.8401 4.48 17.1201C4.48 16.0001 4.48 14.7201 4.8 13.7601L8.16 12.3201V22.2401ZM25.12 25.9201L23.04 27.5201L23.36 27.8401L24.32 27.0401L27.84 30.2401L32.64 27.0401L32.48 26.7201L31.2 27.5201L29.6 25.9201V15.0401L30.88 14.0801L33.6 16.3201V26.0801C33.6 32.1601 32.32 33.1201 29.6 34.0801V34.5601C34.08 34.7201 38.24 33.2801 38.24 25.4401V14.8801L39.68 13.7601L39.36 13.4401L38.08 14.4001L34.08 11.0401L29.6 14.4001V1.28014H29.28L23.68 5.12014V5.44014C24.32 5.76014 25.28 6.08014 25.28 7.84014L25.12 25.9201ZM54.4 24.1601L50.4 27.2001L46.4 24.0001V22.0801L53.92 16.9601V16.8001L50.08 11.0401L41.76 15.5201V26.0801L40.16 27.3601L40.48 27.6801L41.92 26.5601L47.36 30.5601L54.56 24.8001L54.4 24.1601ZM46.4 21.4401V13.6001L46.72 13.4401L50.24 19.0401L46.4 21.4401ZM84.96 3.20014C84.96 2.72014 84.8 2.24014 84.64 1.76014H84.32C83.84 3.04014 83.2 3.68014 81.6 3.68014C80.16 3.68014 79.2 2.88014 78.56 2.24014L73.92 7.52014L74.24 7.84014L75.84 6.40014C76.8 7.20014 77.6 7.84014 79.84 8.00014V21.2801L70.4 5.12014C69.6 3.84014 68.48 2.08014 66.24 2.08014C63.68 2.08014 61.44 4.32014 61.76 7.84014H62.24C62.4 6.88014 62.88 5.76014 64 5.76014C64.8 5.76014 65.6 6.56014 66.08 7.36014V12.6401C63.2 12.6401 61.28 13.9201 61.28 16.3201C61.28 17.6001 61.92 19.5201 63.84 20.0001V19.6801C63.52 19.3601 63.36 19.0401 63.36 18.5601C63.36 17.7601 64 17.1201 65.12 17.1201H65.92V23.8401C62.56 23.8401 59.84 25.7601 59.84 28.9601C59.84 32.0001 62.4 33.4401 65.28 33.2801V32.9601C63.52 32.8001 62.72 32.0001 62.72 30.8801C62.72 29.4401 63.68 28.8001 64.96 28.8001C66.24 28.8001 67.36 29.6001 68.16 30.5601L72.8 25.4401L72.48 25.1201L71.36 26.4001C69.6 24.8001 68.64 24.3201 66.56 24.0001V8.00014L79.36 30.4001H80.32V8.00014C82.72 7.84014 84.96 5.92014 84.96 3.20014ZM96.64 24.1601L92.64 27.2001L88.64 24.0001V22.0801L96.16 16.9601V16.8001L92.32 11.0401L84 15.5201V26.0801L82.4 27.3601L82.72 27.6801L84.16 26.5601L89.6 30.5601L96.8 24.8001L96.64 24.1601ZM88.64 21.4401V13.6001L88.96 13.4401L92.48 19.0401L88.64 21.4401ZM122.72 12.8001L121.6 13.6001L118.56 11.0401L115.04 14.2401L116.48 15.6801V27.6801L112.64 25.2801V15.3601L113.92 14.5601L110.24 11.0401L106.72 14.2401L108.16 15.6801V27.2001L107.68 27.5201L104.32 25.1201V15.5201C104.32 13.2801 103.2 12.6401 101.92 11.8401C100.8 11.0401 100.16 10.5601 100.16 9.44014C100.16 8.48014 101.12 8.00014 101.6 7.68014V7.36014C100.32 7.36014 96.96 8.64014 96.96 11.6801C96.96 13.2801 97.76 13.9201 98.56 14.7201C99.36 15.5201 100.16 16.1601 100.16 17.6001V26.8801L98.4 28.1601L98.72 28.4801L100.32 27.2001L104 30.4001L108 27.6801L112.48 30.4001L120.96 25.4401V14.7201L123.04 13.1201L122.72 12.8001ZM152.48 4.00014L150.88 5.44014L147.36 2.24014L142.08 6.08014V2.56014H141.6L141.76 28.4801C141.28 28.4801 139.84 28.1601 138.72 27.8401L138.4 6.24014C138.4 4.64014 137.28 2.40014 134.4 2.40014C131.52 2.40014 129.6 4.64014 129.6 6.88014H130.08C130.24 5.92014 130.72 5.12014 131.68 5.12014C132.64 5.12014 133.44 5.76014 133.44 7.84014V14.0801C130.56 14.2401 128.8 15.8401 128.8 17.9201C128.8 19.2001 129.44 21.1201 131.36 21.1201V20.8001C130.72 20.4801 130.56 20.0001 130.56 19.6801C130.56 18.7201 131.36 18.4001 132.64 18.4001H133.28V28.3201C130.88 29.1201 129.92 30.8801 129.92 32.8001C129.92 35.5201 132 37.4401 135.2 37.4401C137.44 37.4401 139.36 37.1201 141.28 36.6401C142.88 36.3201 144.96 35.8401 145.92 35.8401C147.2 35.8401 147.68 36.4801 147.68 37.2801C147.68 38.4001 147.2 38.8801 146.56 39.0401V39.3601C149.12 38.8801 150.72 37.2801 150.72 34.8801C150.72 32.4801 148.32 31.0401 145.76 31.0401C144.48 31.0401 141.76 31.5201 139.84 31.8401C137.6 32.3201 135.36 32.6401 134.72 32.6401C133.6 32.6401 132.32 32.1601 132.32 30.5601C132.32 29.2801 133.44 28.1601 136.16 28.1601C137.6 28.1601 139.36 28.3201 141.12 28.8001C143.04 29.2801 144.8 29.7601 146.4 29.7601C148.8 29.7601 150.88 28.9601 150.88 25.6001V5.92014L152.8 4.32014L152.48 4.00014ZM145.92 13.7601C145.44 14.2401 144.8 14.7201 144 14.7201C143.2 14.7201 142.4 14.2401 142.08 13.7601V6.72014L143.68 5.60014L145.92 7.68014V13.7601ZM145.92 18.5601C145.6 18.2401 144.8 17.7601 144 17.7601C143.2 17.7601 142.4 18.2401 142.08 18.5601V14.4001C142.4 14.7201 143.2 15.2001 144 15.2001C144.8 15.2001 145.6 14.7201 145.92 14.4001V18.5601ZM145.92 26.0801C145.92 27.3601 145.12 28.6401 143.36 28.6401H142.08V19.2001C142.4 18.8801 143.2 18.4001 144 18.4001C144.8 18.4001 145.44 18.8801 145.92 19.2001V26.0801ZM167.84 14.7201L162.72 11.0401L154.88 15.5201V25.9201L153.28 27.2001L153.44 27.5201L154.72 26.5601L159.84 30.4001L167.84 25.6001V14.7201ZM159.2 24.8001V13.2801L163.2 16.1601V27.5201L159.2 24.8001ZM183.04 11.3601H182.72C182.24 11.6801 181.76 12.0001 181.28 12.0001C180.64 12.0001 179.84 11.6801 179.52 11.2001H179.2L176.48 14.2401L173.76 11.2001L168.96 14.4001L169.12 14.7201L170.4 13.9201L172 15.6801V25.7601L169.92 27.3601L170.24 27.6801L171.2 26.8801L175.04 30.0801L180 26.7201L179.84 26.4001L178.4 27.2001L176.48 25.6001V14.4001C177.28 15.2001 178.24 16.0001 179.36 16.0001C181.6 16.1601 182.88 13.9201 183.04 11.3601ZM202.24 26.7201L196.8 30.4001L189.44 19.2001L194.72 11.0401H195.04C195.68 11.6801 196.64 12.3201 197.76 12.3201C198.88 12.3201 199.68 11.6801 200.16 11.0401H200.48C200.32 14.2401 198.08 16.1601 196.48 16.1601C194.88 16.1601 194.08 15.3601 193.12 14.8801L192.64 15.6801L200.64 27.5201L202.24 26.5601V26.7201ZM184.64 25.9201L182.56 27.5201L182.88 27.8401L183.84 27.0401L187.36 30.2401L192.16 27.0401L191.84 26.7201L190.56 27.5201L188.96 25.9201V1.28014H188.8L183.04 5.12014V5.44014C183.68 5.76014 184.64 5.92014 184.64 7.84014V25.9201ZM228.8 4.64014C228.8 1.44014 225.76 0.640137 223.36 0.640137V1.12014C224.8 1.12014 225.92 1.60014 225.92 2.72014C225.92 3.36014 225.44 4.32014 224 4.32014C222.88 4.32014 220.48 3.68014 218.72 3.04014C216.64 2.40014 214.72 1.76014 213.12 1.76014C209.92 1.76014 207.68 4.16014 207.68 6.88014C207.68 9.28014 209.44 10.0801 210.08 10.4001L210.24 10.0801C209.76 9.76014 209.28 9.44014 209.28 8.48014C209.28 7.84014 209.92 6.72014 211.52 6.72014C212.96 6.72014 214.88 7.36014 217.44 8.16014C219.68 8.80014 222.08 9.28014 223.36 9.44014V14.4001L220.96 16.4801V16.6401L223.36 18.7201V25.6001C222.08 26.4001 220.64 26.5601 219.36 26.5601C216.96 26.5601 214.88 25.9201 213.12 24.0001L219.68 20.8001V9.60014L211.68 13.1201C212.48 11.0401 214.24 9.60014 215.84 8.48014L215.68 8.16014C210.88 9.44014 206.56 13.7601 206.56 19.2001C206.56 25.6001 211.84 30.4001 217.76 30.4001C224.16 30.4001 228.32 25.2801 228.32 20.0001H228C227.04 22.0801 225.6 24.0001 223.84 24.9601V18.4001L226.4 16.3201V16.1601L224 14.0801V9.28014C226.4 9.28014 228.8 7.68014 228.8 4.64014ZM214.88 22.2401L212.96 23.2001C211.84 21.7601 211.2 19.8401 211.2 17.1201C211.2 16.0001 211.36 14.7201 211.68 13.7601L215.04 12.3201L214.88 22.2401ZM234.4 3.04014H234.24L231.04 5.76014V5.92014L233.76 8.96014H234.08L237.28 6.24014V6.08014L234.4 3.04014ZM239.2 26.7201L237.92 27.5201L236.32 25.9201V14.8801L237.92 13.7601L237.6 13.4401L236.48 14.4001L233.6 11.0401L228.96 14.2401L229.28 14.7201L230.4 13.9201L231.84 15.6801V26.0801L229.76 27.6801L229.92 28.0001L231.04 27.2001L234.56 30.4001L239.36 27.2001L239.2 26.7201ZM265.92 26.5601L264.8 27.3601L263.04 25.7601V14.8801L264.64 13.6001L264.32 13.2801L263.04 14.4001L259.36 11.0401L254.56 14.4001L250.88 11.0401L246.4 14.4001L243.52 11.0401L238.88 14.2401L239.04 14.7201L240.16 13.9201L241.76 15.6801V26.0801L240.48 27.3601L244.16 30.4001L247.68 27.2001L246.24 25.7601V14.8801L247.68 13.9201L250.08 16.1601V25.7601L248.8 27.0401L252.48 30.0801L256 26.8801L254.56 25.4401V14.8801L255.84 14.0801L258.4 16.3201V25.9201L257.28 27.0401L260.96 30.4001L265.92 27.0401V26.5601ZM279.84 24.1601L275.84 27.2001L271.84 24.0001V22.0801L279.36 16.9601V16.8001L275.52 11.0401L267.2 15.5201V26.4001L272.8 30.4001L280 24.6401L279.84 24.1601ZM271.84 21.4401V13.6001L272.16 13.4401L275.68 19.0401L271.84 21.4401ZM294.4 20.0001L291.36 17.6001C293.44 15.8401 294.24 13.4401 294.24 11.8401V10.8801H293.92C293.6 11.6801 292.96 12.4801 291.68 12.4801C290.4 12.4801 289.6 11.8401 288.8 10.8801L281.6 14.8801V20.6401L284.32 22.7201C281.6 25.1201 281.12 26.7201 281.12 28.0001C281.12 29.6001 281.92 30.7201 283.2 31.2001L283.36 30.8801C283.04 30.5601 282.72 30.4001 282.72 29.6001C282.72 29.1201 283.36 28.3201 284.64 28.3201C286.24 28.3201 287.2 29.4401 287.68 29.9201L294.56 25.7601V20.0001H294.4ZM292.64 15.2001C291.52 17.1201 289.12 19.0401 287.68 20.0001L285.92 18.5601V12.9601C286.56 14.5601 288.32 15.8401 290.08 15.8401C291.2 15.8401 291.84 15.6801 292.64 15.2001ZM289.92 28.0001C289.12 26.2401 287.2 24.9601 285.28 24.9601C284.8 24.9601 283.52 24.9601 282.24 25.7601C283.04 24.4801 285.12 22.2401 287.84 20.6401L289.76 22.2401L289.92 28.0001Z" fill="#8FA2B7"/>
</svg>
