<svg width="24" height="24" viewBox="0 0 24 24" fill="none" xmlns="http://www.w3.org/2000/svg">
<path fill-rule="evenodd" clip-rule="evenodd" d="M24 12C24 18.6274 18.6274 24 12 24C5.37258 24 0 18.6274 0 12C0 5.37258 5.37258 0 12 0C18.6274 0 24 5.37258 24 12ZM12.43 8.85881C11.2628 9.34428 8.93014 10.3491 5.43189 11.8732C4.86383 12.0991 4.56626 12.3201 4.53917 12.5362C4.49339 12.9014 4.95071 13.0452 5.57347 13.241C5.65818 13.2676 5.74595 13.2952 5.83594 13.3245C6.44864 13.5237 7.27283 13.7567 7.70129 13.7659C8.08994 13.7743 8.52373 13.6141 9.00264 13.2852C12.2712 11.0789 13.9584 9.96369 14.0643 9.93965C14.139 9.92268 14.2426 9.90136 14.3128 9.96372C14.3829 10.0261 14.376 10.1442 14.3686 10.1759C14.3233 10.369 12.5281 12.038 11.5991 12.9017C11.3095 13.1709 11.1041 13.3619 11.0621 13.4055C10.968 13.5032 10.8721 13.5957 10.78 13.6845C10.2108 14.2332 9.78391 14.6447 10.8036 15.3167C11.2936 15.6396 11.6858 15.9066 12.0769 16.173C12.5042 16.464 12.9303 16.7541 13.4816 17.1155C13.6221 17.2076 13.7562 17.3033 13.8869 17.3964C14.3841 17.7509 14.8307 18.0693 15.3826 18.0185C15.7032 17.989 16.0345 17.6875 16.2027 16.7882C16.6002 14.663 17.3816 10.0583 17.5622 8.16085C17.578 7.99461 17.5581 7.78185 17.5422 7.68845C17.5262 7.59506 17.4928 7.46199 17.3714 7.36348C17.2276 7.24681 17.0056 7.22221 16.9064 7.22396C16.455 7.23191 15.7626 7.47269 12.43 8.85881Z" fill="white"/>
</svg>
