<svg display="none" xmlns="http://www.w3.org/2000/svg">
  <symbol id="facebook" viewBox="0 0 24 24">
    <g>
      <path d="M24 12C24 5.37258 18.6274 0 12 0C5.37258 0 0 5.37258 0 12C0 17.9895 4.3882 22.954 10.125 23.8542V15.4688H7.07812V12H10.125V9.35625C10.125 6.34875 11.9166 4.6875 14.6576 4.6875C15.9701 4.6875 17.3438 4.92188 17.3438 4.92188V7.875H15.8306C14.34 7.875 13.875 8.80008 13.875 9.75V12H17.2031L16.6711 15.4688H13.875V23.8542C19.6118 22.954 24 17.9895 24 12Z" fill="currentColor"/>
    </g>
  </symbol>
  <symbol id="instagram" viewBox="0 0 24 24">
    <g>
      <path d="M12 2.16094C15.2063 2.16094 15.5859 2.175 16.8469 2.23125C18.0188 2.28281 18.6516 2.47969 19.0734 2.64375C19.6313 2.85938 20.0344 3.12188 20.4516 3.53906C20.8734 3.96094 21.1313 4.35938 21.3469 4.91719C21.5109 5.33906 21.7078 5.97656 21.7594 7.14375C21.8156 8.40937 21.8297 8.78906 21.8297 11.9906C21.8297 15.1969 21.8156 15.5766 21.7594 16.8375C21.7078 18.0094 21.5109 18.6422 21.3469 19.0641C21.1313 19.6219 20.8687 20.025 20.4516 20.4422C20.0297 20.8641 19.6313 21.1219 19.0734 21.3375C18.6516 21.5016 18.0141 21.6984 16.8469 21.75C15.5813 21.8062 15.2016 21.8203 12 21.8203C8.79375 21.8203 8.41406 21.8062 7.15313 21.75C5.98125 21.6984 5.34844 21.5016 4.92656 21.3375C4.36875 21.1219 3.96563 20.8594 3.54844 20.4422C3.12656 20.0203 2.86875 19.6219 2.65313 19.0641C2.48906 18.6422 2.29219 18.0047 2.24063 16.8375C2.18438 15.5719 2.17031 15.1922 2.17031 11.9906C2.17031 8.78438 2.18438 8.40469 2.24063 7.14375C2.29219 5.97187 2.48906 5.33906 2.65313 4.91719C2.86875 4.35938 3.13125 3.95625 3.54844 3.53906C3.97031 3.11719 4.36875 2.85938 4.92656 2.64375C5.34844 2.47969 5.98594 2.28281 7.15313 2.23125C8.41406 2.175 8.79375 2.16094 12 2.16094ZM12 0C8.74219 0 8.33438 0.0140625 7.05469 0.0703125C5.77969 0.126563 4.90313 0.332812 4.14375 0.628125C3.35156 0.9375 2.68125 1.34531 2.01563 2.01562C1.34531 2.68125 0.9375 3.35156 0.628125 4.13906C0.332812 4.90313 0.126563 5.775 0.0703125 7.05C0.0140625 8.33437 0 8.74219 0 12C0 15.2578 0.0140625 15.6656 0.0703125 16.9453C0.126563 18.2203 0.332812 19.0969 0.628125 19.8563C0.9375 20.6484 1.34531 21.3188 2.01563 21.9844C2.68125 22.65 3.35156 23.0625 4.13906 23.3672C4.90313 23.6625 5.775 23.8687 7.05 23.925C8.32969 23.9812 8.7375 23.9953 11.9953 23.9953C15.2531 23.9953 15.6609 23.9812 16.9406 23.925C18.2156 23.8687 19.0922 23.6625 19.8516 23.3672C20.6391 23.0625 21.3094 22.65 21.975 21.9844C22.6406 21.3188 23.0531 20.6484 23.3578 19.8609C23.6531 19.0969 23.8594 18.225 23.9156 16.95C23.9719 15.6703 23.9859 15.2625 23.9859 12.0047C23.9859 8.74688 23.9719 8.33906 23.9156 7.05938C23.8594 5.78438 23.6531 4.90781 23.3578 4.14844C23.0625 3.35156 22.6547 2.68125 21.9844 2.01562C21.3188 1.35 20.6484 0.9375 19.8609 0.632812C19.0969 0.3375 18.225 0.13125 16.95 0.075C15.6656 0.0140625 15.2578 0 12 0Z" fill="currentColor"/>
<path d="M12 5.83594C8.59688 5.83594 5.83594 8.59688 5.83594 12C5.83594 15.4031 8.59688 18.1641 12 18.1641C15.4031 18.1641 18.1641 15.4031 18.1641 12C18.1641 8.59688 15.4031 5.83594 12 5.83594ZM12 15.9984C9.79219 15.9984 8.00156 14.2078 8.00156 12C8.00156 9.79219 9.79219 8.00156 12 8.00156C14.2078 8.00156 15.9984 9.79219 15.9984 12C15.9984 14.2078 14.2078 15.9984 12 15.9984Z" fill="currentColor"/>
<path d="M19.8469 5.59238C19.8469 6.38926 19.2 7.03145 18.4078 7.03145C17.6109 7.03145 16.9688 6.38457 16.9688 5.59238C16.9688 4.79551 17.6156 4.15332 18.4078 4.15332C19.2 4.15332 19.8469 4.8002 19.8469 5.59238Z" fill="currentColor"/>
    </g>
  </symbol>
  <symbol id="telegram" viewBox="0 0 24 24">
    <g>
      <path fill-rule="evenodd" clip-rule="evenodd" d="M24 12C24 18.6274 18.6274 24 12 24C5.37258 24 0 18.6274 0 12C0 5.37258 5.37258 0 12 0C18.6274 0 24 5.37258 24 12ZM12.43 8.85881C11.2628 9.34428 8.93014 10.3491 5.43189 11.8732C4.86383 12.0991 4.56626 12.3201 4.53917 12.5362C4.49339 12.9014 4.95071 13.0452 5.57347 13.241C5.65818 13.2676 5.74595 13.2952 5.83594 13.3245C6.44864 13.5237 7.27283 13.7567 7.70129 13.7659C8.08994 13.7743 8.52373 13.6141 9.00264 13.2852C12.2712 11.0789 13.9584 9.96369 14.0643 9.93965C14.139 9.92268 14.2426 9.90136 14.3128 9.96372C14.3829 10.0261 14.376 10.1442 14.3686 10.1759C14.3233 10.369 12.5281 12.038 11.5991 12.9017C11.3095 13.1709 11.1041 13.3619 11.0621 13.4055C10.968 13.5032 10.8721 13.5957 10.78 13.6845C10.2108 14.2332 9.78391 14.6447 10.8036 15.3167C11.2936 15.6396 11.6858 15.9066 12.0769 16.173C12.5042 16.464 12.9303 16.7541 13.4816 17.1155C13.6221 17.2076 13.7562 17.3033 13.8869 17.3964C14.3841 17.7509 14.8307 18.0693 15.3826 18.0185C15.7032 17.989 16.0345 17.6875 16.2027 16.7882C16.6002 14.663 17.3816 10.0583 17.5622 8.16085C17.578 7.99461 17.5581 7.78185 17.5422 7.68845C17.5262 7.59506 17.4928 7.46199 17.3714 7.36348C17.2276 7.24681 17.0056 7.22221 16.9064 7.22396C16.455 7.23191 15.7626 7.47269 12.43 8.85881Z" fill="currentColor"/>
    </g>
  </symbol>
  <symbol id="twitter" viewBox="0 0 24 24">
    <g>
      <path d="M7.55016 21.7502C16.6045 21.7502 21.5583 14.2469 21.5583 7.74211C21.5583 7.53117 21.5536 7.31554 21.5442 7.1046C22.5079 6.40771 23.3395 5.5445 24 4.55554C23.1025 4.95484 22.1496 5.21563 21.1739 5.32898C22.2013 4.71315 22.9705 3.74572 23.3391 2.60601C22.3726 3.1788 21.3156 3.58286 20.2134 3.80085C19.4708 3.01181 18.489 2.48936 17.4197 2.3143C16.3504 2.13923 15.2532 2.32129 14.2977 2.83234C13.3423 3.34339 12.5818 4.15495 12.1338 5.14156C11.6859 6.12816 11.5754 7.23486 11.8195 8.29054C9.86249 8.19233 7.94794 7.68395 6.19998 6.79834C4.45203 5.91274 2.90969 4.66968 1.67297 3.14976C1.0444 4.23349 0.852057 5.51589 1.13503 6.73634C1.418 7.95678 2.15506 9.02369 3.19641 9.72023C2.41463 9.69541 1.64998 9.48492 0.965625 9.10617V9.1671C0.964925 10.3044 1.3581 11.4068 2.07831 12.287C2.79852 13.1672 3.80132 13.7708 4.91625 13.9952C4.19206 14.1934 3.43198 14.2222 2.69484 14.0796C3.00945 15.0577 3.62157 15.9131 4.44577 16.5266C5.26997 17.14 6.26512 17.4808 7.29234 17.5015C5.54842 18.8714 3.39417 19.6144 1.17656 19.6109C0.783287 19.6103 0.390399 19.5861 0 19.5387C2.25286 20.984 4.87353 21.7516 7.55016 21.7502Z" fill="currentColor"/>
    </g>
  </symbol>
  <symbol id="vk" viewBox="0 0 24 24">
    <g>
      <path fill-rule="evenodd" clip-rule="evenodd" d="M1.684 1.684C0 3.368 0 6.0792 0 11.5V12.5C0 17.92 0 20.632 1.684 22.316C3.368 24 6.0792 24 11.5 24H12.5C17.92 24 20.632 24 22.316 22.316C24 20.632 24 17.9208 24 12.5V11.5C24 6.08 24 3.368 22.316 1.684C20.632 0 17.9208 0 12.5 0H11.5C6.08 0 3.368 0 1.684 1.684ZM4.75039 7.5H6.49999C6.94719 7.5 7.11519 7.696 7.28319 8.1808C8.13919 10.6736 9.58239 12.8528 10.1752 12.8528C10.3984 12.8528 10.5 12.7504 10.5 12.1848V9.608C10.4599 8.87446 10.2036 8.55715 10.0138 8.32214C9.89664 8.17705 9.80479 8.06333 9.80479 7.9024C9.80479 7.7064 9.97199 7.5 10.2496 7.5H13C13.3712 7.5 13.5 7.6984 13.5 8.1432V11.6104C13.5 11.9808 13.6608 12.1112 13.772 12.1112C13.9944 12.1112 14.18 11.9808 14.588 11.5728C15.8488 10.164 16.7384 7.9952 16.7384 7.9952C16.8496 7.7352 17.0552 7.5 17.5 7.5H19.2496C19.7792 7.5 19.8912 7.7728 19.7792 8.1432C19.5568 9.1632 17.4248 12.1664 17.4248 12.1664C17.2392 12.4632 17.1648 12.6112 17.4248 12.9448C17.5165 13.0733 17.7123 13.2652 17.9361 13.4846C18.165 13.7089 18.4233 13.9621 18.6296 14.2056C19.3816 15.0512 19.948 15.7648 20.1056 16.256C20.2504 16.7496 20 17 19.5 17H17.7496C17.281 17 17.0452 16.7376 16.5353 16.17C16.3192 15.9295 16.0539 15.6342 15.7008 15.2808C14.6616 14.28 14.2176 14.1504 13.9576 14.1504C13.6056 14.1504 13.5 14.2504 13.5 14.7504V16.32C13.5 16.7496 13.3624 17 12.2496 17C10.396 17 8.35839 15.8744 6.91279 13.7976C4.74319 10.7576 4.15039 8.4584 4.15039 7.9952C4.15039 7.7352 4.25039 7.5 4.75039 7.5Z" fill="currentColor"/>
    </g>
  </symbol>
  <symbol id="youtube" viewBox="0 0 24 24">
    <g>
      <path d="M23.7609 7.1998C23.7609 7.1998 23.5266 5.54512 22.8047 4.81855C21.8906 3.8623 20.8688 3.85762 20.4 3.80137C17.0438 3.55762 12.0047 3.55762 12.0047 3.55762H11.9953C11.9953 3.55762 6.95625 3.55762 3.6 3.80137C3.13125 3.85762 2.10938 3.8623 1.19531 4.81855C0.473438 5.54512 0.24375 7.1998 0.24375 7.1998C0.24375 7.1998 0 9.14512 0 11.0857V12.9045C0 14.8451 0.239062 16.7904 0.239062 16.7904C0.239062 16.7904 0.473437 18.4451 1.19062 19.1717C2.10469 20.1279 3.30469 20.0951 3.83906 20.1982C5.76094 20.3811 12 20.4373 12 20.4373C12 20.4373 17.0438 20.4279 20.4 20.1889C20.8688 20.1326 21.8906 20.1279 22.8047 19.1717C23.5266 18.4451 23.7609 16.7904 23.7609 16.7904C23.7609 16.7904 24 14.8498 24 12.9045V11.0857C24 9.14512 23.7609 7.1998 23.7609 7.1998ZM9.52031 15.1123V8.36699L16.0031 11.7514L9.52031 15.1123Z" fill="currentColor"/>
    </g>
  </symbol>
</svg>
